<svg width="1518" height="1518" xmlns="http://www.w3.org/2000/svg" xmlns:xlink="http://www.w3.org/1999/xlink" xml:space="preserve" overflow="hidden"><defs><clipPath id="clip0"><rect x="479" y="478" width="1518" height="1518"/></clipPath></defs><g clip-path="url(#clip0)" transform="translate(-479 -478)"><rect x="479" y="478" width="1518" height="1518" fill="#FFFFFF"/><path d="M924.5 1237.5 1551.5 1237.5" stroke="#F4F1DE" stroke-width="114.583" stroke-miterlimit="8" fill="none" fill-rule="evenodd"/><path d="M838.5 1776.5 600.5 1657.06 600.5 819.94 838.5 700.5Z" stroke="#F2CC8F" stroke-width="229.167" stroke-linecap="round" stroke-linejoin="round" stroke-miterlimit="10" fill="#F2CC8F" fill-rule="evenodd"/><path d="M1637.5 700.5 1875.5 819.94 1875.5 1657.06 1637.5 1776.5Z" stroke="#F2CC8F" stroke-width="229.167" stroke-linecap="round" stroke-linejoin="round" stroke-miterlimit="10" fill="#F2CC8F" fill-rule="evenodd"/><path d="M1155.5 1181.5 1320.5 1181.5" stroke="#000000" stroke-width="11.4583" stroke-miterlimit="8" fill="none" fill-rule="evenodd"/><path d="M1155.5 1294.5 1320.5 1294.5" stroke="#000000" stroke-width="11.4583" stroke-miterlimit="8" fill="none" fill-rule="evenodd"/><path d="M677 1237.5C677 1100.81 787.809 990 924.5 990 1061.19 990 1172 1100.81 1172 1237.5 1172 1374.19 1061.19 1485 924.5 1485 787.809 1485 677 1374.19 677 1237.5Z" fill="#E07A5F" fill-rule="evenodd"/><path d="M1304 1237.5C1304 1100.81 1414.81 990 1551.5 990 1688.19 990 1799 1100.81 1799 1237.5 1799 1374.19 1688.19 1485 1551.5 1485 1414.81 1485 1304 1374.19 1304 1237.5Z" fill="#3D405B" fill-rule="evenodd"/></g></svg>