<svg width="1887" height="2108" xmlns="http://www.w3.org/2000/svg" xmlns:xlink="http://www.w3.org/1999/xlink" xml:space="preserve" overflow="hidden"><g transform="translate(-294 -184)"><path d="M1237.5 2063 523 1705.75 523 770.249 1237.5 413 1952 770.249 1952 1705.75Z" stroke="#81B29A" stroke-width="458.333" stroke-linecap="round" stroke-linejoin="round" stroke-miterlimit="10" fill="#81B29A" fill-rule="evenodd"/><path d="M924.5 1237.5 1551.5 1237.5" stroke="#F4F1DE" stroke-width="114.583" stroke-miterlimit="8" fill="none" fill-rule="evenodd"/><path d="M1334.26 1630.2 1219.94 1696.2" stroke="#F8F6E9" stroke-width="22.9167" stroke-miterlimit="8" fill="none" fill-rule="evenodd"/><path d="M1159.35 1822.18 1031.85 1788.02" stroke="#F8F6E9" stroke-width="22.9167" stroke-miterlimit="8" fill="none" fill-rule="evenodd"/><path d="M1436.56 1557.6 1322.24 1491.6" stroke="#F8F6E9" stroke-width="22.9167" stroke-miterlimit="8" fill="none" fill-rule="evenodd"/><path d="M1237.5 1398.14 1171.5 1512.46" stroke="#F8F6E9" stroke-width="22.9167" stroke-miterlimit="8" fill="none" fill-rule="evenodd"/><path d="M1098.9 1674.16 1032.9 1559.84" stroke="#F8F6E9" stroke-width="22.9167" stroke-miterlimit="8" fill="none" fill-rule="evenodd"/><path d="M1254.58 1906.35 1220.42 2033.85" stroke="#F8F6E9" stroke-width="22.9167" stroke-miterlimit="8" fill="none" fill-rule="evenodd"/><path d="M1436.5 1792.5 1304.5 1792.5" stroke="#F8F6E9" stroke-width="22.9167" stroke-miterlimit="8" fill="none" fill-rule="evenodd"/><path d="M1492.66 1914 1378.34 1980" stroke="#F8F6E9" stroke-width="22.9167" stroke-miterlimit="8" fill="none" fill-rule="evenodd"/><path d="M1096.66 1980 982.343 1914" stroke="#F8F6E9" stroke-width="22.9167" stroke-miterlimit="8" fill="none" fill-rule="evenodd"/><path d="M1377.13 1605.45C1390.8 1629.13 1382.68 1659.4 1359.01 1673.07 1335.33 1686.74 1305.06 1678.63 1291.39 1654.95 1277.72 1631.27 1285.83 1601 1309.51 1587.33 1333.18 1573.66 1363.46 1581.77 1377.13 1605.45Z" fill="#768BA7" fill-rule="evenodd"/><path d="M1207.16 1834.99C1200.09 1861.4 1172.95 1877.07 1146.54 1870 1120.13 1862.92 1104.46 1835.78 1111.54 1809.37 1118.61 1782.96 1145.76 1767.29 1172.16 1774.37 1198.57 1781.44 1214.24 1808.59 1207.16 1834.99Z" fill="#768BA7" fill-rule="evenodd"/><path d="M1479.43 1582.35C1465.76 1606.03 1435.48 1614.14 1411.81 1600.47 1388.13 1586.8 1380.02 1556.53 1393.69 1532.85 1407.36 1509.17 1437.63 1501.06 1461.31 1514.73 1484.98 1528.4 1493.09 1558.67 1479.43 1582.35Z" fill="#768BA7" fill-rule="evenodd"/><path d="M1262.25 1355.27C1285.93 1368.94 1294.04 1399.22 1280.37 1422.89 1266.7 1446.57 1236.43 1454.68 1212.75 1441.01 1189.07 1427.34 1180.96 1397.07 1194.63 1373.39 1208.3 1349.72 1238.57 1341.61 1262.25 1355.27Z" fill="#768BA7" fill-rule="evenodd"/><path d="M1123.65 1717.03C1099.97 1730.7 1069.7 1722.58 1056.03 1698.91 1042.36 1675.23 1050.47 1644.96 1074.15 1631.29 1097.83 1617.62 1128.1 1625.73 1141.77 1649.41 1155.44 1673.08 1147.33 1703.36 1123.65 1717.03Z" fill="#768BA7" fill-rule="evenodd"/><path d="M1267.39 1858.54C1293.8 1865.61 1309.47 1892.75 1302.4 1919.16 1295.32 1945.57 1268.18 1961.24 1241.77 1954.16 1215.36 1947.09 1199.69 1919.94 1206.77 1893.54 1213.84 1867.13 1240.99 1851.46 1267.39 1858.54Z" fill="#768BA7" fill-rule="evenodd"/><path d="M1485 1791.5C1485 1818.84 1462.84 1841 1435.5 1841 1408.16 1841 1386 1818.84 1386 1791.5 1386 1764.16 1408.16 1742 1435.5 1742 1462.84 1742 1485 1764.16 1485 1791.5Z" fill="#768BA7" fill-rule="evenodd"/><path d="M1535.53 1889.25C1549.2 1912.93 1541.08 1943.2 1517.41 1956.87 1493.73 1970.54 1463.46 1962.43 1449.79 1938.75 1436.12 1915.07 1444.23 1884.8 1467.91 1871.13 1491.58 1857.46 1521.86 1865.57 1535.53 1889.25Z" fill="#768BA7" fill-rule="evenodd"/><path d="M1139.53 2004.75C1125.86 2028.43 1095.58 2036.54 1071.91 2022.87 1048.23 2009.2 1040.12 1978.93 1053.79 1955.25 1067.46 1931.57 1097.73 1923.46 1121.41 1937.13 1145.08 1950.8 1153.19 1981.07 1139.53 2004.75Z" fill="#768BA7" fill-rule="evenodd"/><path d="M1262.81 1671.45C1276.48 1695.13 1268.37 1725.4 1244.69 1739.07 1221.02 1752.74 1190.74 1744.63 1177.07 1720.95 1163.4 1697.27 1171.52 1667 1195.19 1653.33 1218.87 1639.66 1249.14 1647.77 1262.81 1671.45Z" fill="#EAA694" fill-rule="evenodd"/><path d="M1079.66 1800.83C1072.59 1827.24 1045.44 1842.91 1019.04 1835.83 992.631 1828.76 976.96 1801.61 984.036 1775.21 991.111 1748.8 1018.25 1733.13 1044.66 1740.2 1071.07 1747.28 1086.74 1774.42 1079.66 1800.83Z" fill="#EAA694" fill-rule="evenodd"/><path d="M1365.11 1516.35C1351.44 1540.03 1321.17 1548.14 1297.49 1534.47 1273.82 1520.8 1265.71 1490.53 1279.37 1466.85 1293.04 1443.17 1323.32 1435.06 1346.99 1448.73 1370.67 1462.4 1378.78 1492.67 1365.11 1516.35Z" fill="#EAA694" fill-rule="evenodd"/><path d="M1196.25 1469.59C1219.93 1483.26 1228.04 1513.53 1214.37 1537.21 1200.7 1560.88 1170.43 1568.99 1146.75 1555.33 1123.07 1541.66 1114.96 1511.38 1128.63 1487.71 1142.3 1464.03 1172.57 1455.92 1196.25 1469.59Z" fill="#EAA694" fill-rule="evenodd"/><path d="M1057.65 1602.71C1033.97 1616.38 1003.7 1608.27 990.032 1584.59 976.363 1560.92 984.474 1530.64 1008.15 1516.97 1031.83 1503.31 1062.1 1511.42 1075.77 1535.09 1089.44 1558.77 1081.33 1589.04 1057.65 1602.71Z" fill="#EAA694" fill-rule="evenodd"/><path d="M1233.23 1986.04C1259.64 1993.11 1275.31 2020.26 1268.23 2046.66 1261.16 2073.07 1234.01 2088.74 1207.61 2081.66 1181.2 2074.59 1165.53 2047.45 1172.6 2021.04 1179.68 1994.63 1206.82 1978.96 1233.23 1986.04Z" fill="#EAA694" fill-rule="evenodd"/><path d="M1353 1791.5C1353 1818.84 1330.84 1841 1303.5 1841 1276.16 1841 1254 1818.84 1254 1791.5 1254 1764.16 1276.16 1742 1303.5 1742 1330.84 1742 1353 1764.16 1353 1791.5Z" fill="#EAA694" fill-rule="evenodd"/><path d="M1421.21 1955.25C1434.88 1978.93 1426.77 2009.2 1403.09 2022.87 1379.42 2036.54 1349.14 2028.43 1335.47 2004.75 1321.8 1981.07 1329.92 1950.8 1353.59 1937.13 1377.27 1923.46 1407.54 1931.57 1421.21 1955.25Z" fill="#EAA694" fill-rule="evenodd"/><path d="M1025.21 1938.75C1011.54 1962.43 981.268 1970.54 957.593 1956.87 933.917 1943.2 925.805 1912.93 939.474 1889.25 953.143 1865.57 983.417 1857.46 1007.09 1871.13 1030.77 1884.8 1038.88 1915.07 1025.21 1938.75Z" fill="#EAA694" fill-rule="evenodd"/><path d="M838.5 1776.5 600.5 1657.06 600.5 819.94 838.5 700.5Z" stroke="#F2CC8F" stroke-width="229.167" stroke-linecap="round" stroke-linejoin="round" stroke-miterlimit="10" fill="#F2CC8F" fill-rule="evenodd"/><path d="M677 1237.5C677 1100.81 787.809 990 924.5 990 1061.19 990 1172 1100.81 1172 1237.5 1172 1374.19 1061.19 1485 924.5 1485 787.809 1485 677 1374.19 677 1237.5Z" fill="#E07A5F" fill-rule="evenodd"/><text fill="#F4F1DE" font-family="Aptos,Aptos_MSFontService,sans-serif" font-weight="700" font-size="330" transform="matrix(1 0 0 1 788.505 1344)">M</text><path d="M1637.5 700.5 1875.5 819.94 1875.5 1657.06 1637.5 1776.5Z" stroke="#F2CC8F" stroke-width="229.167" stroke-linecap="round" stroke-linejoin="round" stroke-miterlimit="10" fill="#F2CC8F" fill-rule="evenodd"/><path d="M1304 1237.5C1304 1100.81 1414.81 990 1551.5 990 1688.19 990 1799 1100.81 1799 1237.5 1799 1374.19 1688.19 1485 1551.5 1485 1414.81 1485 1304 1374.19 1304 1237.5Z" fill="#3D405B" fill-rule="evenodd"/><text fill="#F4F1DE" font-family="Aptos,Aptos_MSFontService,sans-serif" font-weight="700" font-size="330" transform="matrix(1 0 0 1 1434.41 1344)">D</text><path d="M1140.74 848.1 1255.06 782.1" stroke="#F8F6E9" stroke-width="22.9167" stroke-miterlimit="8" fill="none" fill-rule="evenodd"/><path d="M1097.87 872.85C1084.2 849.174 1092.32 818.901 1115.99 805.232 1139.67 791.563 1169.94 799.674 1183.61 823.35 1197.28 847.026 1189.17 877.299 1165.49 890.968 1141.82 904.637 1111.54 896.526 1097.87 872.85Z" fill="#EAA694" fill-rule="evenodd"/><path d="M1212.19 806.85C1198.52 783.175 1206.63 752.901 1230.31 739.232 1253.98 725.563 1284.26 733.675 1297.93 757.35 1311.6 781.026 1303.48 811.3 1279.81 824.969 1256.13 838.638 1225.86 830.526 1212.19 806.85Z" fill="#768BA7" fill-rule="evenodd"/><path d="M1315.65 656.118 1443.15 690.282" stroke="#F8F6E9" stroke-width="22.9167" stroke-miterlimit="8" fill="none" fill-rule="evenodd"/><path d="M1267.84 643.306C1274.91 616.9 1302.05 601.229 1328.46 608.305 1354.87 615.38 1370.54 642.523 1363.46 668.929 1356.39 695.336 1329.24 711.007 1302.84 703.931 1276.43 696.856 1260.76 669.713 1267.84 643.306Z" fill="#EAA694" fill-rule="evenodd"/><path d="M1395.34 677.471C1402.41 651.064 1429.56 635.393 1455.96 642.469 1482.37 649.545 1498.04 676.687 1490.96 703.094 1483.89 729.501 1456.75 745.171 1430.34 738.096 1403.93 731.02 1388.26 703.878 1395.34 677.471Z" fill="#768BA7" fill-rule="evenodd"/><path d="M1038.44 920.7 1152.76 986.7" stroke="#F8F6E9" stroke-width="22.9167" stroke-miterlimit="8" fill="none" fill-rule="evenodd"/><path d="M995.574 895.95C1009.24 872.274 1039.52 864.163 1063.19 877.832 1086.87 891.501 1094.98 921.774 1081.31 945.45 1067.64 969.125 1037.37 977.237 1013.69 963.568 990.017 949.899 981.905 919.625 995.574 895.95Z" fill="#EAA694" fill-rule="evenodd"/><path d="M1109.89 961.95C1123.56 938.275 1153.83 930.163 1177.51 943.832 1201.18 957.501 1209.29 987.775 1195.63 1011.45 1181.96 1035.13 1151.68 1043.24 1128.01 1029.57 1104.33 1015.9 1096.22 985.626 1109.89 961.95Z" fill="#768BA7" fill-rule="evenodd"/><path d="M1237.5 1080.16 1303.5 965.843" stroke="#F8F6E9" stroke-width="22.9167" stroke-miterlimit="8" fill="none" fill-rule="evenodd"/><path d="M1212.75 1123.03C1189.07 1109.36 1180.96 1079.08 1194.63 1055.41 1208.3 1031.73 1238.57 1023.62 1262.25 1037.29 1285.93 1050.96 1294.04 1081.23 1280.37 1104.91 1266.7 1128.58 1236.43 1136.7 1212.75 1123.03Z" fill="#EAA694" fill-rule="evenodd"/><path d="M1278.75 1008.71C1255.07 995.042 1246.96 964.768 1260.63 941.093 1274.3 917.417 1304.57 909.305 1328.25 922.974 1351.93 936.643 1360.04 966.917 1346.37 990.593 1332.7 1014.27 1302.43 1022.38 1278.75 1008.71Z" fill="#768BA7" fill-rule="evenodd"/><path d="M1376.1 804.142 1442.1 918.458" stroke="#F8F6E9" stroke-width="22.9167" stroke-miterlimit="8" fill="none" fill-rule="evenodd"/><path d="M1351.35 761.274C1375.03 747.605 1405.3 755.717 1418.97 779.393 1432.64 803.068 1424.53 833.342 1400.85 847.011 1377.17 860.68 1346.9 852.568 1333.23 828.893 1319.56 805.217 1327.67 774.943 1351.35 761.274Z" fill="#EAA694" fill-rule="evenodd"/><path d="M1417.35 875.59C1441.03 861.92 1471.3 870.032 1484.97 893.708 1498.64 917.383 1490.53 947.657 1466.85 961.326 1443.17 974.995 1412.9 966.883 1399.23 943.208 1385.56 919.532 1393.67 889.259 1417.35 875.59Z" fill="#768BA7" fill-rule="evenodd"/><path d="M1220.42 571.951 1254.58 444.449" stroke="#F8F6E9" stroke-width="22.9167" stroke-miterlimit="8" fill="none" fill-rule="evenodd"/><path d="M1207.61 619.765C1181.2 612.689 1165.53 585.546 1172.6 559.14 1179.68 532.733 1206.82 517.062 1233.23 524.138 1259.64 531.214 1275.31 558.356 1268.23 584.763 1261.16 611.169 1234.01 626.84 1207.61 619.765Z" fill="#EAA694" fill-rule="evenodd"/><path d="M1241.77 492.262C1215.36 485.187 1199.69 458.044 1206.77 431.638 1213.84 405.231 1240.99 389.56 1267.39 396.636 1293.8 403.711 1309.47 430.854 1302.4 457.261 1295.32 483.667 1268.18 499.338 1241.77 492.262Z" fill="#768BA7" fill-rule="evenodd"/><path d="M1040.5 686.5 1172.5 686.5" stroke="#F8F6E9" stroke-width="22.9167" stroke-miterlimit="8" fill="none" fill-rule="evenodd"/><path d="M990 686.5C990 659.162 1012.16 637 1039.5 637 1066.84 637 1089 659.162 1089 686.5 1089 713.838 1066.84 736 1039.5 736 1012.16 736 990 713.838 990 686.5Z" fill="#EAA694" fill-rule="evenodd"/><path d="M1122 686.5C1122 659.162 1144.16 637 1171.5 637 1198.84 637 1221 659.162 1221 686.5 1221 713.838 1198.84 736 1171.5 736 1144.16 736 1122 713.838 1122 686.5Z" fill="#768BA7" fill-rule="evenodd"/><path d="M982.342 564.3 1096.66 498.3" stroke="#F8F6E9" stroke-width="22.9167" stroke-miterlimit="8" fill="none" fill-rule="evenodd"/><path d="M939.474 589.05C925.805 565.375 933.917 535.101 957.592 521.432 981.268 507.763 1011.54 515.875 1025.21 539.55 1038.88 563.226 1030.77 593.499 1007.09 607.168 983.417 620.837 953.143 612.726 939.474 589.05Z" fill="#EAA694" fill-rule="evenodd"/><path d="M1053.79 523.05C1040.12 499.375 1048.23 469.101 1071.91 455.432 1095.58 441.763 1125.86 449.875 1139.53 473.55 1153.2 497.226 1145.08 527.5 1121.41 541.169 1097.73 554.838 1067.46 546.726 1053.79 523.05Z" fill="#768BA7" fill-rule="evenodd"/><path d="M1378.34 498.3 1492.66 564.3" stroke="#F8F6E9" stroke-width="22.9167" stroke-miterlimit="8" fill="none" fill-rule="evenodd"/><path d="M1335.47 473.55C1349.14 449.875 1379.42 441.763 1403.09 455.432 1426.77 469.101 1434.88 499.375 1421.21 523.05 1407.54 546.725 1377.27 554.837 1353.59 541.168 1329.92 527.499 1321.81 497.225 1335.47 473.55Z" fill="#EAA694" fill-rule="evenodd"/><path d="M1449.79 539.55C1463.46 515.875 1493.73 507.763 1517.41 521.432 1541.08 535.101 1549.19 565.375 1535.53 589.05 1521.86 612.726 1491.58 620.838 1467.91 607.169 1444.23 593.5 1436.12 563.226 1449.79 539.55Z" fill="#768BA7" fill-rule="evenodd"/></g></svg>